# xmcd
#
# Track frame offsets: 
#        150
#        24712
#        44335
#        65927
#        85167
#        114627
#        136317
#        164360
#        186315
#        226270
#        251690
#        275215
#        302007
#
# Disc length: 4126 seconds
#
# Revision: 6
# Processed by: cddbd v1.5.2PL0 Copyright (c) Steve Scherf et al.
# Submitted via: ExactAudioCopy v0.95b4
#
DISCID=bf101c0d
DTITLE=Craig Erickson Project - Shine
DYEAR=2001
DGENRE=Rock
TTITLE0=Businessman
TTITLE1=Familiar [feat. Rob Lamothe]
TTITLE2=Desperate [feat. Rob Lamothe]
TTITLE3=Remember Now [feat. Rob Lamothe]
TTITLE4=Wild Dogs (Tommy Bolin cover) [feat. Glenn Hughes]
TTITLE5=Break Free
TTITLE6=Bus Stop
TTITLE7=Shine [feat. Rob Lamothe]
TTITLE8=Doomsday Blues
TTITLE9=Till The Sun Shines
TTITLE10=Broke Down Love [feat. Rob Lamothe]
TTITLE11=Angel (Jimi Hendrix cover) [feat. Rob Lamothe]
TTITLE12=Beautiful Venus
EXTD=Copyright 2001 Grooveyard Records http://www.craigerickson.com
EXTT0=
EXTT1=
EXTT2=
EXTT3=
EXTT4=
EXTT5=
EXTT6=
EXTT7=
EXTT8=
EXTT9=
EXTT10=
EXTT11=
EXTT12=
PLAYORDER=
